2.2Hzlow3min_grf.mot
version=1
nRows=30
nColumns 19
inDegrees=yes
endheader
time	1_ground_force_vx	1_ground_force_vy	1_ground_force_vz	1_ground_force_px	1_ground_force_py	1_ground_force_pz	1_ground_torque_x	1_ground_torque_y	1_ground_torque_z	2_ground_force_vx	2_ground_force_vy	2_ground_force_vz	2_ground_force_px	2_ground_force_py	2_ground_force_pz	2_ground_torque_x	2_ground_torque_y	2_ground_torque_z
            3.751500	            1.194334	           -4.509164	            0.619701	           -0.233013	            0.005581	           -0.255695	           -0.381529	           -0.026347	           -0.154962	           -0.745467	           -1.108768	            0.324873	           -0.232311	            0.006130	           -0.833667	           -0.487796	           -0.181163	           -0.056984
            3.752000	            1.239233	           -4.327317	            0.253512	           -0.233013	            0.005581	           -0.255695	           -0.403633	           -0.035426	           -0.190594	           -0.698596	           -1.108766	            0.371781	           -0.232311	            0.006130	           -0.833667	           -0.582158	           -0.058684	           -0.037655
            3.752500	            0.368184	           -4.147219	            0.256447	           -0.233013	            0.005581	           -0.255695	           -0.422558	           -0.082127	           -0.209095	           -0.227480	           -1.843333	            0.275098	           -0.232311	            0.006130	           -0.833667	           -0.413243	           -0.020129	           -0.075293
            3.753000	            0.277457	           -3.788475	            0.670924	           -0.233013	            0.005581	           -0.255695	           -0.421518	           -0.156263	           -0.175742	            0.147258	           -1.841478	            0.134154	           -0.232311	            0.006130	           -0.833667	           -0.469353	           -0.077385	            0.018780
            3.753500	            0.461418	           -5.771755	            0.753678	           -0.233013	            0.005581	           -0.255695	           -0.405304	           -0.220957	           -0.149372	           -0.088862	           -1.290883	            0.417793	           -0.232311	            0.006130	           -0.833667	           -0.468977	           -0.181364	            0.018409
            3.754000	            0.782709	           -5.411948	            0.937851	           -0.233013	            0.005581	           -0.255695	           -0.469688	           -0.211491	           -0.154299	           -0.085519	           -2.211792	            0.461436	           -0.232311	            0.006130	           -0.833667	           -0.544092	           -0.200205	           -0.075877
            3.754500	            0.919732	           -4.510004	            0.803807	           -0.233013	            0.005581	           -0.255695	           -0.352051	           -0.118492	           -0.261149	           -0.036696	           -2.763900	            0.412517	           -0.232311	            0.006130	           -0.833667	           -0.318770	           -0.171033	           -0.075872
            3.755000	            1.103529	           -5.591955	            0.890426	           -0.233013	            0.005581	           -0.255695	           -0.374086	           -0.007408	           -0.271559	           -0.648320	           -2.030176	            0.603117	           -0.232311	            0.006130	           -0.833667	           -0.394073	           -0.133292	           -0.132256
            3.755500	            0.735565	           -5.770129	            0.386148	           -0.233013	            0.005581	           -0.255695	           -0.465047	            0.029200	           -0.249211	           -0.742205	           -2.029008	            0.180804	           -0.232311	            0.006130	           -0.833667	           -0.375484	           -0.076575	           -0.113211
            3.756000	            0.506285	           -5.409642	            0.388263	           -0.233013	            0.005581	           -0.255695	           -0.465296	           -0.007879	           -0.259156	           -0.736162	           -3.686845	            0.315674	           -0.232311	            0.006130	           -0.833667	           -0.300379	           -0.048483	            0.037660
            3.756500	            0.139559	           -6.130579	            0.340225	           -0.233013	            0.005581	           -0.255695	           -0.556470	           -0.156445	           -0.162390	           -0.602176	           -1.845523	            0.509898	           -0.232311	            0.006130	           -0.833667	           -0.337827	           -0.104663	           -0.151029
            3.757000	           -0.181264	           -4.689106	            0.484773	           -0.233013	            0.005581	           -0.255695	           -0.563281	           -0.239779	           -0.176465	           -0.225363	           -2.396782	            0.554695	           -0.232311	            0.006130	           -0.833667	           -0.412978	           -0.095683	           -0.094413
            3.757500	           -0.181504	           -6.490779	            0.247764	           -0.233013	            0.005581	           -0.255695	           -0.458553	           -0.128766	           -0.194983	            0.243075	           -2.394589	            0.413712	           -0.232311	            0.006130	           -0.833667	           -0.450430	           -0.124311	           -0.056797
            3.758000	            0.231194	           -5.229430	            0.389718	           -0.233013	            0.005581	           -0.255695	           -0.484217	            0.010478	           -0.270765	            0.292418	           -3.129674	            0.035639	           -0.232311	            0.006130	           -0.833667	           -0.488366	           -0.029718	           -0.112995
            3.758500	            0.276369	           -4.687641	            0.162644	           -0.233013	            0.005581	           -0.255695	           -0.493672	            0.140058	           -0.305847	            0.008517	           -2.392924	           -0.290110	           -0.232311	            0.006130	           -0.833667	           -0.450975	            0.017748	           -0.131692
            3.759000	            0.230415	           -5.948920	            0.019779	           -0.233013	            0.005581	           -0.255695	           -0.411685	            0.176618	           -0.213813	           -0.038354	           -2.392926	           -0.337019	           -0.232311	            0.006130	           -0.833667	           -0.432257	            0.036721	           -0.131633
            3.759500	            0.138367	           -3.966015	            0.028509	           -0.233013	            0.005581	           -0.255695	           -0.413027	           -0.017374	           -0.256217	           -0.366036	           -2.396286	            0.273186	           -0.232311	            0.006130	           -0.833667	           -0.488502	           -0.001091	           -0.188294
            3.760000	           -0.411941	           -5.407460	           -0.159733	           -0.233013	            0.005581	           -0.255695	           -0.498179	           -0.119327	           -0.279848	           -0.507935	           -2.028329	            0.227632	           -0.232311	            0.006130	           -0.833667	           -0.412902	           -0.105472	           -0.000195
            3.760500	           -0.641384	           -5.407111	           -0.250876	           -0.233013	            0.005581	           -0.255695	           -0.531784	           -0.156497	           -0.270900	           -0.367283	           -2.028659	            0.462213	           -0.232311	            0.006130	           -0.833667	           -0.356613	           -0.104731	           -0.151021
            3.761000	           -0.595834	           -5.046178	           -0.341155	           -0.233013	            0.005581	           -0.255695	           -0.471697	           -0.119655	           -0.231353	            0.287307	           -1.658161	            0.510176	           -0.232311	            0.006130	           -0.833667	           -0.450445	           -0.133361	           -0.169932
            3.761500	           -0.319263	           -5.228946	            0.253516	           -0.233013	            0.005581	           -0.255695	           -0.478331	            0.093251	           -0.256285	            0.571503	           -2.576047	           -0.009438	           -0.232311	            0.006130	           -0.833667	           -0.488417	           -0.020131	           -0.150661
            3.762000	            0.092266	           -5.046831	           -0.159438	           -0.233013	            0.005581	           -0.255695	           -0.329551	            0.149157	           -0.295223	            0.332540	           -1.287352	           -0.145523	           -0.232311	            0.006130	           -0.833667	           -0.451009	            0.027201	           -0.131659
            3.762500	            0.092802	           -4.867549	            0.070614	           -0.233013	            0.005581	           -0.255695	           -0.527336	            0.066259	           -0.370286	            0.149834	           -2.577402	           -0.056187	           -0.232311	            0.006130	           -0.833667	           -0.432387	            0.083649	           -0.037213
            3.763000	            0.093177	           -5.048404	            0.207409	           -0.233013	            0.005581	           -0.255695	           -0.476333	           -0.026886	           -0.201623	            0.007331	           -2.025799	            0.039700	           -0.232311	            0.006130	           -0.833667	           -0.413251	           -0.020061	           -0.094143
            3.763500	           -0.365463	           -5.768966	            0.067887	           -0.233013	            0.005581	           -0.255695	           -0.526304	           -0.119626	           -0.202620	           -0.088965	           -1.290046	            0.183153	           -0.232311	            0.006130	           -0.833667	           -0.375202	           -0.152264	           -0.094631
            3.764000	           -0.411911	           -4.326259	           -0.063383	           -0.233013	            0.005581	           -0.255695	           -0.502552	           -0.119728	           -0.185887	           -0.505982	           -2.580439	            0.131805	           -0.232311	            0.006130	           -0.833667	           -0.469215	           -0.124379	           -0.056789
            3.764500	           -0.595933	           -4.505381	           -0.338836	           -0.233013	            0.005581	           -0.255695	           -0.547200	           -0.008668	           -0.249507	           -0.179342	           -2.211126	            0.179907	           -0.232311	            0.006130	           -0.833667	           -0.450694	           -0.048757	           -0.037677
            3.765000	           -0.686577	           -5.228034	            0.025147	           -0.233013	            0.005581	           -0.255695	           -0.543493	            0.083496	           -0.196611	            0.147881	           -2.025291	            0.039641	           -0.232311	            0.006130	           -0.833667	           -0.488427	           -0.001696	           -0.018642
            3.765500	            0.047040	           -4.687488	            0.117357	           -0.233013	            0.005581	           -0.255695	           -0.491649	            0.149034	           -0.277991	            0.474501	           -1.655811	            0.040815	           -0.232311	            0.006130	           -0.833667	           -0.450890	           -0.001292	           -0.094059
            3.766000	            0.138645	           -4.867540	            0.070501	           -0.233013	            0.005581	           -0.255695	           -0.508194	            0.111856	           -0.217799	            0.236990	           -0.736417	            0.184985	           -0.232311	            0.006130	           -0.833667	           -0.432352	            0.065012	           -0.112681
